<svg width="24" height="24" viewBox="0 0 24 24" fill="none" xmlns="http://www.w3.org/2000/svg">
<path d="M19.0252 18.3181L18.3181 19.0252C14.7825 16.9039 11.247 14.7826 10.8935 10.8934C14.7825 11.247 16.9039 14.7825 19.0252 18.3181Z" fill="white"/>
<path d="M16.1968 18.3181L17.9645 19.3787C17.5001 19.8432 18.0963 20.6612 18.6477 21.524C17.2782 20.7721 15.1569 20.065 16.1968 18.3181Z" fill="white"/>
<path d="M18.3181 16.1967L19.3787 17.9645C19.8432 17.5 20.6612 18.0962 21.524 18.6477C20.7721 17.2782 20.065 15.1569 18.3181 16.1967Z" fill="white"/>
<path d="M10.9902 9.67158C11.0253 9.36599 10.9657 9.05698 10.8194 8.78641C10.6731 8.51585 10.4471 8.29682 10.1721 8.159C9.89708 8.02118 9.58636 7.97123 9.28202 8.01594C8.97768 8.06064 8.69445 8.19783 8.47069 8.40891C8.24694 8.61999 8.0935 8.89476 8.03115 9.19597C7.9688 9.49719 8.00056 9.81029 8.12213 10.0929C8.24371 10.3754 8.44921 10.6138 8.71079 10.7756C8.97238 10.9374 9.27739 11.015 9.58451 10.9976L9.50001 9.50001L10.9902 9.67158Z" fill="white"/>
<path d="M13.8529 10.6413C14.1029 9.68768 14.0329 8.67839 13.6535 7.76848C13.2742 6.85858 12.6066 6.0984 11.7533 5.60478C10.9 5.11117 9.90815 4.91141 8.93027 5.03623C7.9524 5.16104 7.04256 5.60351 6.34058 6.29564C5.63861 6.98777 5.18333 7.89126 5.04472 8.86728C4.9061 9.84329 5.09182 10.8378 5.57334 11.698C6.05486 12.5582 6.80552 13.2365 7.70998 13.6287C8.61444 14.0208 9.62264 14.1051 10.5797 13.8686L10.26 12.5751C9.58633 12.7415 8.87665 12.6822 8.24 12.4062C7.60335 12.1302 7.07495 11.6527 6.73601 11.0472C6.39707 10.4417 6.26634 9.74165 6.36391 9.05463C6.46148 8.36761 6.78195 7.73163 7.27608 7.24444C7.7702 6.75725 8.41064 6.44579 9.09897 6.35793C9.7873 6.27008 10.4854 6.41068 11.0861 6.75815C11.6867 7.10561 12.1567 7.64069 12.4237 8.28118C12.6907 8.92167 12.74 9.63212 12.564 10.3033L13.8529 10.6413Z" fill="white"/>
<path d="M16.5115 12.1626C17.1246 10.548 17.1617 8.77121 16.6165 7.13241C16.0713 5.49361 14.9772 4.0932 13.519 3.16771C12.0607 2.24222 10.3278 1.84836 8.61279 2.05267C6.8978 2.25698 5.30588 3.04693 4.1059 4.2891C2.90592 5.53127 2.17143 7.14952 2.02647 8.87055C1.88152 10.5916 2.33499 12.3099 3.31029 13.7353C4.28559 15.1606 5.72296 16.2057 7.37961 16.694C9.03627 17.1823 10.8107 17.0839 12.4032 16.4153L11.8767 15.1613C10.573 15.7086 9.12036 15.7892 7.76412 15.3895C6.40789 14.9897 5.23118 14.1341 4.43273 12.9672C3.63429 11.8003 3.26305 10.3936 3.38172 8.98469C3.50039 7.57576 4.10169 6.25096 5.08407 5.23405C6.06644 4.21714 7.36969 3.57043 8.77368 3.40317C10.1777 3.23591 11.5964 3.55834 12.7902 4.31601C13.9839 5.07367 14.8796 6.22013 15.326 7.56175C15.7723 8.90337 15.742 10.3579 15.24 11.6798L16.5115 12.1626Z" fill="white"/>
</svg>
